<svg width="41" height="40" viewBox="0 0 41 40" fill="none" xmlns="http://www.w3.org/2000/svg">
<rect x="1" y="0.5" width="39" height="39" rx="19.5" stroke="#6D6D6E"/>
<g clip-path="url(#clip0_281_1695)">
<path d="M17 29H25" stroke="white" stroke-width="1.5" stroke-linecap="round" stroke-linejoin="round"/>
<path d="M21 25V29" stroke="white" stroke-width="1.5" stroke-linecap="round" stroke-linejoin="round"/>
<path d="M16 12H26" stroke="white" stroke-width="1.5" stroke-linecap="round" stroke-linejoin="round"/>
<path d="M26 12V20C26 21.3261 25.4732 22.5979 24.5355 23.5355C23.5979 24.4732 22.3261 25 21 25C19.6739 25 18.4021 24.4732 17.4645 23.5355C16.5268 22.5979 16 21.3261 16 20V12" stroke="white" stroke-width="1.5" stroke-linecap="round" stroke-linejoin="round"/>
<path d="M12 17C12 17.5304 12.2107 18.0391 12.5858 18.4142C12.9609 18.7893 13.4696 19 14 19C14.5304 19 15.0391 18.7893 15.4142 18.4142C15.7893 18.0391 16 17.5304 16 17C16 16.4696 15.7893 15.9609 15.4142 15.5858C15.0391 15.2107 14.5304 15 14 15C13.4696 15 12.9609 15.2107 12.5858 15.5858C12.2107 15.9609 12 16.4696 12 17Z" stroke="white" stroke-width="1.5" stroke-linecap="round" stroke-linejoin="round"/>
<path d="M26 17C26 17.5304 26.2107 18.0391 26.5858 18.4142C26.9609 18.7893 27.4696 19 28 19C28.5304 19 29.0391 18.7893 29.4142 18.4142C29.7893 18.0391 30 17.5304 30 17C30 16.4696 29.7893 15.9609 29.4142 15.5858C29.0391 15.2107 28.5304 15 28 15C27.4696 15 26.9609 15.2107 26.5858 15.5858C26.2107 15.9609 26 16.4696 26 17Z" stroke="white" stroke-width="1.5" stroke-linecap="round" stroke-linejoin="round"/>
</g>
<defs>
<clipPath id="clip0_281_1695">
<rect width="24" height="24" fill="white" transform="translate(9 8)"/>
</clipPath>
</defs>
</svg>
