<svg width="40" height="40" viewBox="0 0 40 40" fill="none" xmlns="http://www.w3.org/2000/svg">
<rect x="0.5" y="0.5" width="39" height="39" rx="19.5" stroke="#6D6D6E"/>
<g clip-path="url(#clip0_706_1949)">
<path d="M10 12C10 12.5304 10.2107 13.0391 10.5858 13.4142C10.9609 13.7893 11.4696 14 12 14C12.5304 14 13.0391 13.7893 13.4142 13.4142C13.7893 13.0391 14 12.5304 14 12C14 11.4696 13.7893 10.9609 13.4142 10.5858C13.0391 10.2107 12.5304 10 12 10C11.4696 10 10.9609 10.2107 10.5858 10.5858C10.2107 10.9609 10 11.4696 10 12Z" stroke="white" stroke-width="1.5" stroke-linecap="round" stroke-linejoin="round"/>
<path d="M26 18C26 18.5304 26.2107 19.0391 26.5858 19.4142C26.9609 19.7893 27.4696 20 28 20C28.5304 20 29.0391 19.7893 29.4142 19.4142C29.7893 19.0391 30 18.5304 30 18C30 17.4696 29.7893 16.9609 29.4142 16.5858C29.0391 16.2107 28.5304 16 28 16C27.4696 16 26.9609 16.2107 26.5858 16.5858C26.2107 16.9609 26 17.4696 26 18Z" stroke="white" stroke-width="1.5" stroke-linecap="round" stroke-linejoin="round"/>
<path d="M10 20C10 20.5304 10.2107 21.0391 10.5858 21.4142C10.9609 21.7893 11.4696 22 12 22C12.5304 22 13.0391 21.7893 13.4142 21.4142C13.7893 21.0391 14 20.5304 14 20C14 19.4696 13.7893 18.9609 13.4142 18.5858C13.0391 18.2107 12.5304 18 12 18C11.4696 18 10.9609 18.2107 10.5858 18.5858C10.2107 18.9609 10 19.4696 10 20Z" stroke="white" stroke-width="1.5" stroke-linecap="round" stroke-linejoin="round"/>
<path d="M10 28C10 28.5304 10.2107 29.0391 10.5858 29.4142C10.9609 29.7893 11.4696 30 12 30C12.5304 30 13.0391 29.7893 13.4142 29.4142C13.7893 29.0391 14 28.5304 14 28C14 27.4696 13.7893 26.9609 13.4142 26.5858C13.0391 26.2107 12.5304 26 12 26C11.4696 26 10.9609 26.2107 10.5858 26.5858C10.2107 26.9609 10 27.4696 10 28Z" stroke="white" stroke-width="1.5" stroke-linecap="round" stroke-linejoin="round"/>
<path d="M14 20H17C17.2652 20 17.5196 20.1054 17.7071 20.2929C17.8946 20.4804 18 20.7348 18 21V27C18 27.2652 17.8946 27.5196 17.7071 27.7071C17.5196 27.8946 17.2652 28 17 28H14" stroke="white" stroke-width="1.5" stroke-linecap="round" stroke-linejoin="round"/>
<path d="M14 12H21C21.2652 12 21.5196 12.1054 21.7071 12.2929C21.8946 12.4804 22 12.7348 22 13V23C22 23.2652 21.8946 23.5196 21.7071 23.7071C21.5196 23.8946 21.2652 24 21 24H19" stroke="white" stroke-width="1.5" stroke-linecap="round" stroke-linejoin="round"/>
<path d="M22 18H26" stroke="white" stroke-width="1.5" stroke-linecap="round" stroke-linejoin="round"/>
</g>
<defs>
<clipPath id="clip0_706_1949">
<rect width="24" height="24" fill="white" transform="translate(8 8)"/>
</clipPath>
</defs>
</svg>
