<svg width="56" height="56" viewBox="0 0 56 56" fill="none" xmlns="http://www.w3.org/2000/svg">
<path d="M28.0466 6.79004C20.3233 6.79004 14.0466 13.0667 14.0466 20.79V27.5334C14.0466 28.9567 13.44 31.1267 12.7166 32.34L10.0333 36.7967C8.37663 39.55 9.51996 42.6067 12.5533 43.6334C22.61 46.9934 33.46 46.9934 43.5166 43.6334C46.34 42.7 47.5766 39.3634 46.0366 36.7967L43.3533 32.34C42.6533 31.1267 42.0466 28.9567 42.0466 27.5334V20.79C42.0466 13.09 35.7466 6.79004 28.0466 6.79004Z" stroke="#AFAFAF" stroke-width="1.5" stroke-miterlimit="10" stroke-linecap="round"/>
<path d="M32.3633 7.46661C31.64 7.25661 30.8933 7.09328 30.1233 6.99994C27.8833 6.71994 25.7366 6.88328 23.73 7.46661C24.4066 5.73994 26.0866 4.52661 28.0466 4.52661C30.0066 4.52661 31.6866 5.73994 32.3633 7.46661Z" stroke="#AFAFAF" stroke-width="1.5" stroke-miterlimit="10" stroke-linecap="round" stroke-linejoin="round"/>
<path d="M35.0466 44.4734C35.0466 48.3234 31.8966 51.4734 28.0466 51.4734C26.1333 51.4734 24.36 50.6801 23.1 49.4201C21.84 48.1601 21.0466 46.3867 21.0466 44.4734" stroke="#AFAFAF" stroke-width="1.5" stroke-miterlimit="10"/>
</svg>
