<svg width="16" height="16" viewBox="0 0 16 16" fill="none" xmlns="http://www.w3.org/2000/svg">
<g clip-path="url(#clip0_690_2116)">
<path d="M6.66663 8.66683C6.66663 9.02045 6.8071 9.35959 7.05715 9.60964C7.3072 9.85969 7.64634 10.0002 7.99996 10.0002C8.35358 10.0002 8.69272 9.85969 8.94277 9.60964C9.19282 9.35959 9.33329 9.02045 9.33329 8.66683C9.33329 8.31321 9.19282 7.97407 8.94277 7.72402C8.69272 7.47397 8.35358 7.3335 7.99996 7.3335C7.64634 7.3335 7.3072 7.47397 7.05715 7.72402C6.8071 7.97407 6.66663 8.31321 6.66663 8.66683Z" stroke="#AFAFAF" stroke-linecap="round" stroke-linejoin="round"/>
<path d="M5.33337 14V13.3333C5.33337 12.9797 5.47385 12.6406 5.7239 12.3905C5.97395 12.1405 6.31309 12 6.66671 12H9.33337C9.687 12 10.0261 12.1405 10.2762 12.3905C10.5262 12.6406 10.6667 12.9797 10.6667 13.3333V14" stroke="#AFAFAF" stroke-linecap="round" stroke-linejoin="round"/>
<path d="M10 3.33333C10 3.68696 10.1405 4.02609 10.3905 4.27614C10.6406 4.52619 10.9797 4.66667 11.3333 4.66667C11.687 4.66667 12.0261 4.52619 12.2761 4.27614C12.5262 4.02609 12.6667 3.68696 12.6667 3.33333C12.6667 2.97971 12.5262 2.64057 12.2761 2.39052C12.0261 2.14048 11.687 2 11.3333 2C10.9797 2 10.6406 2.14048 10.3905 2.39052C10.1405 2.64057 10 2.97971 10 3.33333Z" stroke="#AFAFAF" stroke-linecap="round" stroke-linejoin="round"/>
<path d="M11.3334 6.6665H12.6667C13.0203 6.6665 13.3595 6.80698 13.6095 7.05703C13.8596 7.30708 14 7.64622 14 7.99984V8.6665" stroke="#AFAFAF" stroke-linecap="round" stroke-linejoin="round"/>
<path d="M3.33337 3.33333C3.33337 3.68696 3.47385 4.02609 3.7239 4.27614C3.97395 4.52619 4.31309 4.66667 4.66671 4.66667C5.02033 4.66667 5.35947 4.52619 5.60952 4.27614C5.85956 4.02609 6.00004 3.68696 6.00004 3.33333C6.00004 2.97971 5.85956 2.64057 5.60952 2.39052C5.35947 2.14048 5.02033 2 4.66671 2C4.31309 2 3.97395 2.14048 3.7239 2.39052C3.47385 2.64057 3.33337 2.97971 3.33337 3.33333Z" stroke="#AFAFAF" stroke-linecap="round" stroke-linejoin="round"/>
<path d="M2 8.6665V7.99984C2 7.64622 2.14048 7.30708 2.39052 7.05703C2.64057 6.80698 2.97971 6.6665 3.33333 6.6665H4.66667" stroke="#AFAFAF" stroke-linecap="round" stroke-linejoin="round"/>
</g>
<defs>
<clipPath id="clip0_690_2116">
<rect width="16" height="16" fill="white"/>
</clipPath>
</defs>
</svg>
