<svg width="40" height="40" viewBox="0 0 40 40" fill="none" xmlns="http://www.w3.org/2000/svg">
<rect x="0.5" y="0.5" width="39" height="39" rx="19.5" stroke="#6D6D6E"/>
<g clip-path="url(#clip0_281_1669)">
<path d="M27.5001 20.572L20.0001 28L12.5001 20.572C12.0054 20.0906 11.6157 19.512 11.3556 18.8726C11.0955 18.2333 10.9706 17.5469 10.9888 16.8569C11.007 16.1669 11.1678 15.4881 11.4612 14.8633C11.7546 14.2385 12.1742 13.6812 12.6935 13.2266C13.2129 12.7719 13.8208 12.4297 14.4789 12.2215C15.137 12.0133 15.8311 11.9436 16.5174 12.0168C17.2038 12.09 17.8676 12.3046 18.4669 12.6469C19.0663 12.9892 19.5883 13.452 20.0001 14.006C20.4136 13.456 20.9362 12.9973 21.5352 12.6586C22.1341 12.3199 22.7966 12.1084 23.481 12.0375C24.1654 11.9666 24.8571 12.0377 25.5128 12.2464C26.1685 12.4551 26.7741 12.7969 27.2916 13.2504C27.8091 13.7038 28.2275 14.2593 28.5205 14.8819C28.8135 15.5045 28.9748 16.1809 28.9944 16.8687C29.0139 17.5565 28.8913 18.241 28.6342 18.8792C28.3771 19.5175 27.991 20.0958 27.5001 20.578" stroke="white" stroke-width="1.5" stroke-linecap="round" stroke-linejoin="round"/>
<path d="M20 14L16.707 17.293C16.5195 17.4805 16.4142 17.7348 16.4142 18C16.4142 18.2652 16.5195 18.5195 16.707 18.707L17.25 19.25C17.94 19.94 19.06 19.94 19.75 19.25L20.75 18.25C21.3467 17.6533 22.1561 17.318 23 17.318C23.8439 17.318 24.6532 17.6533 25.25 18.25L27.5 20.5" stroke="white" stroke-width="1.5" stroke-linecap="round" stroke-linejoin="round"/>
<path d="M20.5 23.5L22.5 25.5" stroke="white" stroke-width="1.5" stroke-linecap="round" stroke-linejoin="round"/>
<path d="M23 21L25 23" stroke="white" stroke-width="1.5" stroke-linecap="round" stroke-linejoin="round"/>
</g>
<defs>
<clipPath id="clip0_281_1669">
<rect width="24" height="24" fill="white" transform="translate(8 8)"/>
</clipPath>
</defs>
</svg>
