<svg width="25" height="24" viewBox="0 0 25 24" fill="none" xmlns="http://www.w3.org/2000/svg">
<path d="M12.65 16.5V18.6" stroke="white" stroke-width="1.5" stroke-linecap="round" stroke-linejoin="round"/>
<path d="M7.65002 22H17.65V21C17.65 19.9 16.75 19 15.65 19H9.65002C8.55002 19 7.65002 19.9 7.65002 21V22V22Z" stroke="white" stroke-width="1.5" stroke-miterlimit="10"/>
<path d="M6.65002 22H18.65" stroke="white" stroke-width="1.5" stroke-linecap="round" stroke-linejoin="round"/>
<path d="M12.5 16C8.63 16 5.5 12.87 5.5 9V6C5.5 3.79 7.29 2 9.5 2H15.5C17.71 2 19.5 3.79 19.5 6V9C19.5 12.87 16.37 16 12.5 16Z" stroke="white" stroke-width="1.5" stroke-linecap="round" stroke-linejoin="round"/>
<path d="M5.97004 11.65C5.22004 11.41 4.56004 10.97 4.04004 10.45C3.14004 9.44998 2.54004 8.24998 2.54004 6.84998C2.54004 5.44998 3.64004 4.34998 5.04004 4.34998H5.69004C5.49004 4.80998 5.39004 5.31998 5.39004 5.84998V8.84998C5.39004 9.84998 5.60004 10.79 5.97004 11.65Z" stroke="white" stroke-width="1.5" stroke-linecap="round" stroke-linejoin="round"/>
<path d="M19.03 11.65C19.78 11.41 20.44 10.97 20.96 10.45C21.86 9.44998 22.46 8.24998 22.46 6.84998C22.46 5.44998 21.36 4.34998 19.96 4.34998H19.31C19.51 4.80998 19.61 5.31998 19.61 5.84998V8.84998C19.61 9.84998 19.4 10.79 19.03 11.65Z" stroke="white" stroke-width="1.5" stroke-linecap="round" stroke-linejoin="round"/>
</svg>
