<svg width="16" height="16" viewBox="0 0 16 16" fill="none" xmlns="http://www.w3.org/2000/svg">
<g clip-path="url(#clip0_704_3676)">
<path d="M3.33337 8.66634C3.33337 8.31272 3.47385 7.97358 3.7239 7.72353C3.97395 7.47348 4.31309 7.33301 4.66671 7.33301H11.3334C11.687 7.33301 12.0261 7.47348 12.2762 7.72353C12.5262 7.97358 12.6667 8.31272 12.6667 8.66634V12.6663C12.6667 13.02 12.5262 13.3591 12.2762 13.6092C12.0261 13.8592 11.687 13.9997 11.3334 13.9997H4.66671C4.31309 13.9997 3.97395 13.8592 3.7239 13.6092C3.47385 13.3591 3.33337 13.02 3.33337 12.6663V8.66634Z" stroke="#AFAFAF" stroke-linecap="round" stroke-linejoin="round"/>
<path d="M7.33337 10.6667C7.33337 10.8435 7.40361 11.013 7.52864 11.1381C7.65366 11.2631 7.82323 11.3333 8.00004 11.3333C8.17685 11.3333 8.34642 11.2631 8.47145 11.1381C8.59647 11.013 8.66671 10.8435 8.66671 10.6667C8.66671 10.4899 8.59647 10.3203 8.47145 10.1953C8.34642 10.0702 8.17685 10 8.00004 10C7.82323 10 7.65366 10.0702 7.52864 10.1953C7.40361 10.3203 7.33337 10.4899 7.33337 10.6667Z" stroke="#AFAFAF" stroke-linecap="round" stroke-linejoin="round"/>
<path d="M5.33337 7.33301V3.99967C5.33337 3.29243 5.61433 2.61415 6.11442 2.11406C6.61452 1.61396 7.2928 1.33301 8.00004 1.33301C8.70728 1.33301 9.38556 1.61396 9.88566 2.11406C10.3858 2.61415 10.6667 3.29243 10.6667 3.99967" stroke="#AFAFAF" stroke-linecap="round" stroke-linejoin="round"/>
</g>
<defs>
<clipPath id="clip0_704_3676">
<rect width="16" height="16" fill="white"/>
</clipPath>
</defs>
</svg>
