<svg width="57" height="56" viewBox="0 0 57 56" fill="none" xmlns="http://www.w3.org/2000/svg">
<rect x="0.5" width="56" height="56" rx="28" fill="#3574F5"/>
<path d="M37.8332 24.0001C37.8332 25.9334 37.2598 27.7068 36.2732 29.1868C34.8332 31.3201 32.5532 32.8268 29.8998 33.2134C29.4465 33.2934 28.9798 33.3334 28.4998 33.3334C28.0198 33.3334 27.5532 33.2934 27.0998 33.2134C24.4465 32.8268 22.1665 31.3201 20.7265 29.1868C19.7398 27.7068 19.1665 25.9334 19.1665 24.0001C19.1665 18.8401 23.3398 14.6667 28.4998 14.6667C33.6598 14.6667 37.8332 18.8401 37.8332 24.0001Z" stroke="white" stroke-width="1.5" stroke-linecap="round" stroke-linejoin="round"/>
<path d="M40.8333 36.6266L38.6333 37.1466C38.1399 37.2666 37.7533 37.64 37.6466 38.1333L37.1799 40.0933C36.9266 41.16 35.5666 41.48 34.8599 40.64L28.4999 33.3333L22.1399 40.6533C21.4333 41.4933 20.0733 41.1733 19.8199 40.1066L19.3533 38.1466C19.2333 37.6533 18.8466 37.2666 18.3666 37.16L16.1666 36.64C15.1533 36.4 14.7933 35.1333 15.5266 34.3999L20.7266 29.2C22.1666 31.3333 24.4466 32.84 27.0999 33.2266C27.5533 33.3066 28.0199 33.3466 28.4999 33.3466C28.9799 33.3466 29.4466 33.3066 29.8999 33.2266C32.5533 32.84 34.8333 31.3333 36.2733 29.2L41.4733 34.3999C42.2066 35.1199 41.8466 36.3866 40.8333 36.6266Z" stroke="white" stroke-width="1.5" stroke-linecap="round" stroke-linejoin="round"/>
<path d="M29.2731 19.9733L30.0598 21.5466C30.1665 21.7599 30.4465 21.9732 30.6998 22.0132L32.1265 22.2532C33.0331 22.3999 33.2465 23.0666 32.5931 23.7199L31.4865 24.8266C31.2998 25.0132 31.1931 25.3733 31.2598 25.6399L31.5798 27.0132C31.8331 28.0932 31.2598 28.5199 30.2998 27.9466L28.9665 27.1599C28.7265 27.0132 28.3265 27.0132 28.0865 27.1599L26.7531 27.9466C25.7931 28.5066 25.2198 28.0932 25.4731 27.0132L25.7931 25.6399C25.8465 25.3866 25.7531 25.0132 25.5665 24.8266L24.4598 23.7199C23.8065 23.0666 24.0198 22.4132 24.9265 22.2532L26.3531 22.0132C26.5931 21.9732 26.8731 21.7599 26.9798 21.5466L27.7665 19.9733C28.1531 19.1199 28.8465 19.1199 29.2731 19.9733Z" stroke="white" stroke-width="1.5" stroke-linecap="round" stroke-linejoin="round"/>
</svg>
