<svg width="26" height="15" viewBox="0 0 26 15" fill="none" xmlns="http://www.w3.org/2000/svg">
<path d="M8.98 14H4.98L0.12 0.6H3.5L6.92 10.64H7.12L10.48 0.6H13.84L8.98 14ZM20.2938 14.2C18.9871 14.2 17.9071 14.0267 17.0538 13.68C16.2004 13.3333 15.5671 12.82 15.1538 12.14C14.7404 11.46 14.5338 10.6267 14.5338 9.64V9.38H17.4738V9.58C17.4738 10.0733 17.5538 10.46 17.7138 10.74C17.8738 11.0067 18.1604 11.2 18.5738 11.32C19.0004 11.4267 19.6204 11.48 20.4338 11.48C21.2871 11.48 21.8538 11.3867 22.1338 11.2C22.4138 11.0133 22.5538 10.6933 22.5538 10.24C22.5538 9.93333 22.5071 9.68667 22.4138 9.5C22.3338 9.31333 22.1471 9.16 21.8538 9.04C21.5604 8.90667 21.1004 8.79333 20.4738 8.7L18.1138 8.28C17.2604 8.13333 16.5604 7.89333 16.0138 7.56C15.4804 7.21333 15.0871 6.78667 14.8338 6.28C14.5938 5.76 14.4738 5.15333 14.4738 4.46C14.4738 3.76667 14.6471 3.11333 14.9938 2.5C15.3538 1.88667 15.9271 1.38667 16.7138 0.999999C17.5138 0.6 18.5471 0.4 19.8138 0.4C21.0938 0.4 22.1271 0.6 22.9138 0.999999C23.7138 1.4 24.3004 1.95333 24.6738 2.66C25.0471 3.35333 25.2338 4.14667 25.2338 5.04V5.2H22.2738V4.98C22.2738 4.51333 22.2004 4.14667 22.0538 3.88C21.9071 3.61333 21.6471 3.42 21.2738 3.3C20.9004 3.18 20.3804 3.12 19.7138 3.12C18.8604 3.12 18.2671 3.22 17.9338 3.42C17.6138 3.60667 17.4538 3.91333 17.4538 4.34C17.4538 4.62 17.5071 4.84667 17.6138 5.02C17.7204 5.18 17.9071 5.30667 18.1738 5.4C18.4538 5.49333 18.8538 5.59333 19.3738 5.7L21.7538 6.16C22.6871 6.33333 23.4271 6.61333 23.9738 7C24.5338 7.37333 24.9338 7.82667 25.1738 8.36C25.4138 8.89333 25.5338 9.48667 25.5338 10.14C25.5338 10.8467 25.3604 11.5133 25.0138 12.14C24.6671 12.7533 24.1138 13.2533 23.3538 13.64C22.5938 14.0133 21.5738 14.2 20.2938 14.2Z" fill="#F26666"/>
</svg>
