<svg width="223" height="48" viewBox="0 0 223 48" fill="none" xmlns="http://www.w3.org/2000/svg">
<path d="M0 10.0538C0 7.53883 2.03883 5.5 4.55385 5.5H32.4462C34.9612 5.5 37 7.53883 37 10.0538V37.9462C37 40.4612 34.9612 42.5 32.4462 42.5H4.55385C2.03883 42.5 0 40.4612 0 37.9462V10.0538Z" fill="#204795"/>
<path d="M11.9083 32.3392H2.27692V15.1769H11.396C12.7109 15.1769 13.7953 15.3306 14.6492 15.638C15.5201 15.9283 16.169 16.3894 16.5959 17.0212C17.0228 17.636 17.2363 18.4301 17.2363 19.4035C17.2363 20.4793 16.946 21.3332 16.3654 21.965C15.7848 22.5968 14.9053 22.964 13.727 23.0665V23.3995C15.1785 23.4507 16.2544 23.8691 16.9545 24.6546C17.6718 25.4402 18.0304 26.4135 18.0304 27.5748C18.0304 28.5652 17.8084 29.4191 17.3644 30.1363C16.9375 30.8535 16.2715 31.4 15.3664 31.7757C14.4613 32.1514 13.3086 32.3392 11.9083 32.3392ZM7.09262 25.4487V28.0102H11.729C12.1901 28.0102 12.5402 27.9419 12.7792 27.8053C13.0183 27.6687 13.1378 27.3186 13.1378 26.7551C13.1378 26.1745 13.0268 25.8158 12.8048 25.6792C12.5828 25.5255 12.2242 25.4487 11.729 25.4487H7.09262ZM7.09262 19.5059V21.7088H11.1398C11.6351 21.7088 11.9681 21.632 12.1388 21.4783C12.3267 21.3246 12.4206 21.0343 12.4206 20.6074C12.4206 20.1463 12.3096 19.8475 12.0876 19.7108C11.8827 19.5742 11.5326 19.5059 11.0374 19.5059H7.09262Z" fill="#030305"/>
<path d="M24.1028 32.3392H19.2871V15.1769H27.9195C29.3711 15.1769 30.5664 15.3818 31.5057 15.7917C32.4449 16.1845 33.1451 16.7736 33.6061 17.5592C34.0672 18.3447 34.2978 19.3095 34.2978 20.4537C34.2978 21.3588 34.1697 22.1443 33.9135 22.8103C33.6574 23.4763 33.239 24.0142 32.6584 24.4241C32.0948 24.8168 31.3264 25.073 30.353 25.1925V25.4231C31.2239 25.6451 31.8728 26.0208 32.2998 26.5502C32.7438 27.0795 33.128 27.7114 33.4524 28.4457L35.2455 32.3392H29.6358L27.9451 28.7787C27.7061 28.2835 27.4841 27.8992 27.2791 27.626C27.0913 27.3357 26.8437 27.1393 26.5363 27.0368C26.246 26.9173 25.8276 26.8575 25.2811 26.8575H24.1028V32.3392ZM24.1028 19.5059V22.8615H27.7402C28.4233 22.8615 28.8844 22.742 29.1234 22.5029C29.3625 22.2638 29.4821 21.8028 29.4821 21.1197C29.4821 20.4878 29.3625 20.0609 29.1234 19.8389C28.8844 19.6169 28.4233 19.5059 27.7402 19.5059H24.1028Z" fill="#030305"/>
<path d="M58.152 34H46.12V12.56H57.512C59.1547 12.56 60.5093 12.752 61.576 13.136C62.664 13.4987 63.4747 14.0747 64.008 14.864C64.5413 15.632 64.808 16.624 64.808 17.84C64.808 19.184 64.4453 20.2507 63.72 21.04C62.9947 21.8293 61.896 22.288 60.424 22.416V22.832C62.2373 22.896 63.5813 23.4187 64.456 24.4C65.352 25.3813 65.8 26.5973 65.8 28.048C65.8 29.2853 65.5227 30.352 64.968 31.248C64.4347 32.144 63.6027 32.8267 62.472 33.296C61.3413 33.7653 59.9013 34 58.152 34ZM52.136 25.392V28.592H57.928C58.504 28.592 58.9413 28.5067 59.24 28.336C59.5387 28.1653 59.688 27.728 59.688 27.024C59.688 26.2987 59.5493 25.8507 59.272 25.68C58.9947 25.488 58.5467 25.392 57.928 25.392H52.136ZM52.136 17.968V20.72H57.192C57.8107 20.72 58.2267 20.624 58.44 20.432C58.6747 20.24 58.792 19.8773 58.792 19.344C58.792 18.768 58.6533 18.3947 58.376 18.224C58.12 18.0533 57.6827 17.968 57.064 17.968H52.136ZM75.091 34.32C73.2777 34.32 71.731 33.9787 70.451 33.296C69.171 32.6133 68.1897 31.632 67.507 30.352C66.8457 29.072 66.515 27.5467 66.515 25.776C66.515 23.984 66.8457 22.4587 67.507 21.2C68.1897 19.92 69.171 18.9387 70.451 18.256C71.731 17.5733 73.2777 17.232 75.091 17.232C76.9043 17.232 78.451 17.5733 79.731 18.256C81.011 18.9387 81.9817 19.92 82.643 21.2C83.3257 22.4587 83.667 23.984 83.667 25.776C83.667 27.5467 83.3257 29.072 82.643 30.352C81.9817 31.632 81.011 32.6133 79.731 33.296C78.451 33.9787 76.9043 34.32 75.091 34.32ZM75.091 29.104C76.0937 29.104 76.7763 28.88 77.139 28.432C77.5017 27.9627 77.683 27.0773 77.683 25.776C77.683 24.4533 77.5017 23.568 77.139 23.12C76.7763 22.672 76.0937 22.448 75.091 22.448C74.0883 22.448 73.4057 22.672 73.043 23.12C72.6803 23.568 72.499 24.4533 72.499 25.776C72.499 27.0773 72.6803 27.9627 73.043 28.432C73.4057 28.88 74.0883 29.104 75.091 29.104ZM100.796 34H95.1635V31.504L95.0675 30.48V23.728C95.0675 23.216 94.9288 22.864 94.6515 22.672C94.3955 22.4587 93.8302 22.352 92.9555 22.352C92.0808 22.352 91.4942 22.448 91.1955 22.64C90.9182 22.832 90.7795 23.1733 90.7795 23.664V24.176H85.0515V23.792C85.0515 22.4267 85.3822 21.264 86.0435 20.304C86.7262 19.3227 87.6755 18.5653 88.8915 18.032C90.1075 17.4987 91.5368 17.232 93.1795 17.232C94.8862 17.232 96.2942 17.488 97.4035 18C98.5342 18.512 99.3768 19.28 99.9315 20.304C100.508 21.3067 100.796 22.5867 100.796 24.144V34ZM89.6595 34.32C88.2515 34.32 87.0675 33.9467 86.1075 33.2C85.1475 32.432 84.6675 31.3013 84.6675 29.808C84.6675 28.9547 84.8488 28.2187 85.2115 27.6C85.5955 26.96 86.1608 26.4373 86.9075 26.032C87.6755 25.6267 88.6462 25.328 89.8195 25.136L95.3875 24.24V27.76L91.0675 28.496C90.7475 28.5387 90.5128 28.624 90.3635 28.752C90.2355 28.8587 90.1715 29.0293 90.1715 29.264C90.1715 29.5413 90.2782 29.7333 90.4915 29.84C90.7048 29.9253 91.0888 29.968 91.6435 29.968C92.4755 29.968 93.1368 29.8933 93.6275 29.744C94.1395 29.5733 94.5022 29.3173 94.7155 28.976C94.9502 28.6133 95.0675 28.144 95.0675 27.568L95.5155 32.016H94.8755C94.6408 32.3573 94.3102 32.7093 93.8835 33.072C93.4568 33.4133 92.9022 33.712 92.2195 33.968C91.5368 34.2027 90.6835 34.32 89.6595 34.32ZM108.569 34H102.585V17.552H108.185V22.224L108.569 22.384V34ZM108.569 23.6H107.353V20.048H108.473C108.942 19.2373 109.561 18.5653 110.329 18.032C111.118 17.4987 112.057 17.232 113.145 17.232C114.212 17.232 115.054 17.4453 115.673 17.872C116.292 18.2987 116.74 18.9067 117.017 19.696C117.294 20.4853 117.433 21.424 117.433 22.512V25.488H111.417V23.856C111.417 23.2373 111.332 22.8213 111.161 22.608C110.99 22.3947 110.628 22.288 110.073 22.288C109.582 22.288 109.209 22.3627 108.953 22.512C108.697 22.64 108.569 23.0027 108.569 23.6ZM124.667 34.32C122.598 34.32 120.998 33.5413 119.867 31.984C118.737 30.4267 118.171 28.3573 118.171 25.776C118.171 23.1733 118.726 21.104 119.835 19.568C120.966 18.0107 122.619 17.232 124.795 17.232C125.99 17.232 126.982 17.4667 127.771 17.936C128.561 18.384 129.126 18.9813 129.467 19.728H130.683L130.363 25.168H129.755C129.755 24.4213 129.649 23.856 129.435 23.472C129.243 23.0667 128.945 22.8 128.539 22.672C128.134 22.5227 127.611 22.448 126.971 22.448C126.331 22.448 125.819 22.5227 125.435 22.672C125.073 22.8 124.795 23.0027 124.603 23.28C124.433 23.5573 124.315 23.9093 124.251 24.336C124.187 24.7413 124.155 25.2213 124.155 25.776C124.155 26.3307 124.187 26.8213 124.251 27.248C124.315 27.6533 124.443 27.9947 124.635 28.272C124.827 28.528 125.105 28.7307 125.467 28.88C125.851 29.008 126.353 29.072 126.971 29.072C127.611 29.072 128.134 29.008 128.539 28.88C128.945 28.7307 129.243 28.464 129.435 28.08C129.649 27.6747 129.755 27.0987 129.755 26.352H130.363L130.683 31.76H129.947C129.499 32.528 128.838 33.1467 127.963 33.616C127.089 34.0853 125.99 34.32 124.667 34.32ZM135.739 34H130.139V30.928L129.755 30.512V12.56H135.739V34ZM143.824 34H137.808V12.56H148.592C150.405 12.56 151.898 12.816 153.072 13.328C154.245 13.8187 155.12 14.5547 155.696 15.536C156.272 16.5173 156.56 17.7227 156.56 19.152C156.56 20.2827 156.4 21.264 156.08 22.096C155.76 22.928 155.237 23.6 154.512 24.112C153.808 24.6027 152.848 24.9227 151.632 25.072V25.36C152.72 25.6373 153.53 26.1067 154.064 26.768C154.618 27.4293 155.098 28.2187 155.503 29.136L157.744 34H150.736L148.624 29.552C148.325 28.9333 148.048 28.4533 147.792 28.112C147.557 27.7493 147.248 27.504 146.864 27.376C146.501 27.2267 145.978 27.152 145.296 27.152H143.824V34ZM143.824 17.968V22.16H148.368C149.221 22.16 149.797 22.0107 150.096 21.712C150.394 21.4133 150.544 20.8373 150.544 19.984C150.544 19.1947 150.394 18.6613 150.096 18.384C149.797 18.1067 149.221 17.968 148.368 17.968H143.824ZM166.06 34.32C164.246 34.32 162.7 33.9787 161.42 33.296C160.14 32.6133 159.158 31.632 158.476 30.352C157.814 29.072 157.484 27.5467 157.484 25.776C157.484 23.984 157.814 22.4587 158.476 21.2C159.158 19.92 160.14 18.9387 161.42 18.256C162.7 17.5733 164.246 17.232 166.06 17.232C167.873 17.232 169.42 17.5733 170.7 18.256C171.98 18.9387 172.95 19.92 173.612 21.2C174.294 22.4587 174.636 23.984 174.636 25.776C174.636 27.5467 174.294 29.072 173.612 30.352C172.95 31.632 171.98 32.6133 170.7 33.296C169.42 33.9787 167.873 34.32 166.06 34.32ZM166.06 29.104C167.062 29.104 167.745 28.88 168.108 28.432C168.47 27.9627 168.652 27.0773 168.652 25.776C168.652 24.4533 168.47 23.568 168.108 23.12C167.745 22.672 167.062 22.448 166.06 22.448C165.057 22.448 164.374 22.672 164.012 23.12C163.649 23.568 163.468 24.4533 163.468 25.776C163.468 27.0773 163.649 27.9627 164.012 28.432C164.374 28.88 165.057 29.104 166.06 29.104ZM184.497 34.32C182.684 34.32 181.137 33.9787 179.857 33.296C178.577 32.6133 177.596 31.632 176.913 30.352C176.252 29.072 175.921 27.5467 175.921 25.776C175.921 23.984 176.252 22.4587 176.913 21.2C177.596 19.92 178.577 18.9387 179.857 18.256C181.137 17.5733 182.684 17.232 184.497 17.232C186.311 17.232 187.857 17.5733 189.137 18.256C190.417 18.9387 191.388 19.92 192.049 21.2C192.732 22.4587 193.073 23.984 193.073 25.776C193.073 27.5467 192.732 29.072 192.049 30.352C191.388 31.632 190.417 32.6133 189.137 33.296C187.857 33.9787 186.311 34.32 184.497 34.32ZM184.497 29.104C185.5 29.104 186.183 28.88 186.545 28.432C186.908 27.9627 187.089 27.0773 187.089 25.776C187.089 24.4533 186.908 23.568 186.545 23.12C186.183 22.672 185.5 22.448 184.497 22.448C183.495 22.448 182.812 22.672 182.449 23.12C182.087 23.568 181.905 24.4533 181.905 25.776C181.905 27.0773 182.087 27.9627 182.449 28.432C182.812 28.88 183.495 29.104 184.497 29.104ZM222.045 34H216.029V24.72C216.029 23.8453 215.879 23.2373 215.581 22.896C215.303 22.5547 214.674 22.384 213.693 22.384C212.754 22.384 212.103 22.544 211.741 22.864C211.399 23.1627 211.229 23.7493 211.229 24.624L210.621 24.688L210.269 20.048H210.813C211.197 19.4293 211.645 18.9173 212.157 18.512C212.69 18.0853 213.298 17.7653 213.981 17.552C214.663 17.3387 215.399 17.232 216.189 17.232C217.618 17.232 218.759 17.52 219.613 18.096C220.466 18.6507 221.085 19.408 221.469 20.368C221.853 21.3067 222.045 22.3413 222.045 23.472V34ZM200.413 34H194.429V17.552H200.029V22.064L200.413 22.224V34ZM211.229 34H205.213V24.72C205.213 23.8453 205.063 23.2373 204.765 22.896C204.487 22.5547 203.858 22.384 202.877 22.384C201.938 22.384 201.287 22.544 200.925 22.864C200.583 23.1627 200.413 23.7493 200.413 24.624L199.805 24.688L199.453 20.048H200.317C200.615 19.4293 201.01 18.9173 201.501 18.512C202.013 18.0853 202.599 17.7653 203.261 17.552C203.922 17.3387 204.626 17.232 205.373 17.232C206.802 17.232 207.943 17.52 208.797 18.096C209.65 18.6507 210.269 19.408 210.653 20.368C211.037 21.3067 211.229 22.3413 211.229 23.472V34Z" fill="#3574F5"/>
</svg>
